<svg xmlns="http://www.w3.org/2000/svg" width="220" height="60" viewBox="0 0 220 60">
    <g fill="none" fill-rule="evenodd">
        <path d="M0 0h220v60H0z"/>
        <path fill="#171B20" d="M69.929 55l-2.64-6.672H54.137L51.64 55h-8.928l14.256-33.984h7.968L79.049 55h-9.12zm-9.12-24.912l-4.32 11.664h8.544l-4.224-11.664zm45.268 12.864c0 1.664-.256 3.264-.768 4.8s-1.256 2.888-2.232 4.056a11.025 11.025 0 0 1-3.576 2.808c-1.408.704-3.008 1.056-4.8 1.056-1.6 0-3.112-.328-4.536-.984-1.424-.656-2.52-1.592-3.288-2.808h-.096V55h-7.248V18.712h7.872V33.64h.096c.672-.8 1.616-1.536 2.832-2.208 1.216-.672 2.704-1.008 4.464-1.008 1.728 0 3.288.336 4.68 1.008a10.685 10.685 0 0 1 3.552 2.736c.976 1.152 1.728 2.488 2.256 4.008a14.45 14.45 0 0 1 .792 4.776zm-7.584 0c0-.768-.12-1.52-.36-2.256a5.638 5.638 0 0 0-1.08-1.944 5.612 5.612 0 0 0-1.776-1.368c-.704-.352-1.52-.528-2.448-.528-.896 0-1.696.176-2.4.528a5.726 5.726 0 0 0-1.8 1.392 6.374 6.374 0 0 0-1.152 1.968 6.46 6.46 0 0 0 0 4.512 6.374 6.374 0 0 0 1.152 1.968 5.726 5.726 0 0 0 1.8 1.392c.704.352 1.504.528 2.4.528.928 0 1.744-.176 2.448-.528a5.455 5.455 0 0 0 1.776-1.392c.48-.576.84-1.24 1.08-1.992.24-.752.36-1.512.36-2.28zm35.909 0c0 1.952-.352 3.72-1.056 5.304-.704 1.584-1.664 2.928-2.88 4.032a13.184 13.184 0 0 1-4.224 2.568c-1.6.608-3.312.912-5.136.912-1.792 0-3.496-.304-5.112-.912-1.616-.608-3.024-1.464-4.224-2.568-1.2-1.104-2.152-2.448-2.856-4.032-.704-1.584-1.056-3.352-1.056-5.304 0-1.952.352-3.712 1.056-5.28.704-1.568 1.656-2.896 2.856-3.984s2.608-1.92 4.224-2.496a15.111 15.111 0 0 1 5.112-.864c1.824 0 3.536.288 5.136.864 1.6.576 3.008 1.408 4.224 2.496 1.216 1.088 2.176 2.416 2.88 3.984.704 1.568 1.056 3.328 1.056 5.28zm-7.584 0c0-.768-.128-1.52-.384-2.256a5.966 5.966 0 0 0-1.104-1.944 5.612 5.612 0 0 0-1.776-1.368c-.704-.352-1.52-.528-2.448-.528-.928 0-1.744.176-2.448.528a5.34 5.34 0 0 0-1.752 1.368 5.86 5.86 0 0 0-1.056 1.944 7.233 7.233 0 0 0 0 4.512c.24.736.6 1.4 1.08 1.992a5.315 5.315 0 0 0 1.776 1.416c.704.352 1.52.528 2.448.528.928 0 1.744-.176 2.448-.528a5.315 5.315 0 0 0 1.776-1.416c.48-.592.84-1.256 1.08-1.992.24-.736.36-1.488.36-2.256zM153.126 55v-3.312h-.096a6.766 6.766 0 0 1-1.128 1.536 7.11 7.11 0 0 1-1.632 1.248 9.99 9.99 0 0 1-2.064.864 8.28 8.28 0 0 1-2.376.336c-1.6 0-2.952-.288-4.056-.864-1.104-.576-2-1.32-2.688-2.232a8.803 8.803 0 0 1-1.488-3.12 14.14 14.14 0 0 1-.456-3.576V31.096h7.92v12.96c0 .672.048 1.312.144 1.92.096.608.28 1.152.552 1.632s.632.856 1.08 1.128c.448.272 1.04.408 1.776.408 1.376 0 2.424-.512 3.144-1.536.72-1.024 1.08-2.224 1.08-3.6V31.096h7.872V55h-7.584zm20.26-18v9.12c0 1.12.217 1.96.649 2.52.432.56 1.208.84 2.328.84a8.37 8.37 0 0 0 1.224-.096 4.2 4.2 0 0 0 1.08-.288l.096 5.76c-.544.192-1.232.36-2.064.504a14.61 14.61 0 0 1-2.496.216c-1.6 0-2.944-.2-4.032-.6-1.088-.4-1.96-.976-2.616-1.728-.656-.752-1.128-1.648-1.416-2.688-.288-1.04-.432-2.2-.432-3.48V37h-3.84v-5.904h3.792v-6.288h7.728v6.288h5.616V37h-5.616z"/>
    </g>
</svg>
