<svg xmlns="http://www.w3.org/2000/svg" width="220" height="60" viewBox="0 0 220 60">
    <g fill="none" fill-rule="evenodd">
        <path d="M0 0h220v60H0z"/>
        <path fill="#171B20" d="M71.973 28.024v7.008h13.152V41.8H71.973V55h-8.112V21.016H86.23v7.008H71.973zM109.946 55l-2.64-6.672H94.154L91.658 55H82.73l14.256-33.984h7.968L119.066 55h-9.12zm-9.12-24.912l-4.32 11.664h8.544l-4.224-11.664zM135.39 55c-2.688 0-5.152-.384-7.392-1.152-2.24-.768-4.152-1.896-5.736-3.384-1.584-1.488-2.816-3.312-3.696-5.472-.88-2.16-1.32-4.632-1.32-7.416 0-2.592.464-4.96 1.392-7.104.928-2.144 2.216-3.984 3.864-5.52 1.648-1.536 3.6-2.728 5.856-3.576 2.256-.848 4.696-1.272 7.32-1.272 2.624 0 5.056.424 7.296 1.272 2.24.848 4.176 2.032 5.808 3.552 1.632 1.52 2.904 3.344 3.816 5.472.912 2.128 1.368 4.472 1.368 7.032 0 1.312-.144 2.536-.432 3.672a14.442 14.442 0 0 1-1.152 3.096 13.242 13.242 0 0 1-1.632 2.472c-.608.72-1.216 1.32-1.824 1.8v.144l7.152-.144V55H135.39zm9.888-17.328c0-1.472-.232-2.832-.696-4.08-.464-1.248-1.12-2.32-1.968-3.216a8.848 8.848 0 0 0-3.048-2.088c-1.184-.496-2.48-.744-3.888-.744-1.376 0-2.648.248-3.816.744a9.161 9.161 0 0 0-3.048 2.088c-.864.896-1.536 1.968-2.016 3.216-.48 1.248-.72 2.608-.72 4.08 0 1.536.232 2.936.696 4.2.464 1.264 1.12 2.352 1.968 3.264a8.748 8.748 0 0 0 3.024 2.112c1.168.496 2.456.744 3.864.744 1.376 0 2.656-.248 3.84-.744a8.937 8.937 0 0 0 3.072-2.112c.864-.912 1.536-2 2.016-3.264.48-1.264.72-2.664.72-4.2z"/>
    </g>
</svg>
