<svg xmlns="http://www.w3.org/2000/svg" xmlns:xlink="http://www.w3.org/1999/xlink" width="24" height="24" viewBox="0 0 24 24">
    <defs>
        <path id="a" d="M0 .038h19.996v3.125H0z"/>
        <path id="c" d="M.002.028h12.414v3.357H.002z"/>
        <path id="e" d="M.022.035h19.903v13.793H.022z"/>
    </defs>
    <g fill="none" fill-rule="evenodd">
        <path d="M0 0h24v24H0z"/>
        <g transform="translate(2 7.855)">
            <mask id="b" fill="#fff">
                <use xlink:href="#a"/>
            </mask>
            <path fill="#C0E9F2" d="M19.705 2.283L16.608.053a.057.057 0 0 0-.024-.015l-.007.014-3.507 2.97h6.583l.272.14a.702.702 0 0 0-.22-.88zm-19.414 0a.694.694 0 0 0-.269.738h6.872L3.387.052.291 2.283z" mask="url(#b)"/>
        </g>
        <g transform="translate(5.79 3.011)">
            <mask id="d" fill="#fff">
                <use xlink:href="#c"/>
            </mask>
            <path fill="#F4CD1E" d="M8.506 2.123L6.21.028 3.91 2.123a.807.807 0 0 1-.977.045L.002.028v2.795c.04.343.346.591.69.56h11.034a.635.635 0 0 0 .69-.56V.028L9.485 2.166a.806.806 0 0 1-.979-.043" mask="url(#d)"/>
        </g>
        <path fill="#00A6C1" d="M11.984 21.514l3.086-10.638H8.894l3.09 10.638zm6.203-13.741h-6.19l3.073 3.103 3.507-2.969.007-.014a.699.699 0 0 0-.397-.12zm-12.379 0a.725.725 0 0 0-.42.134l3.506 2.969 3.104-3.103h-6.19z"/>
        <g transform="translate(2 7.738)">
            <mask id="f" fill="#fff">
                <use xlink:href="#e"/>
            </mask>
            <path fill="#16C3C8" d="M9.998.035L6.894 3.138h6.176L9.998.035zm9.655 3.103H13.07L9.984 13.776l.014.052a.71.71 0 0 0 .527-.23l9.287-10.153a.594.594 0 0 0 .113-.165l-.272-.142zm-19.631 0c.026.115.082.221.162.307L9.47 13.597a.7.7 0 0 0 .497.231l.017-.052-3.09-10.638H.022z" mask="url(#f)"/>
        </g>
    </g>
</svg>
