<svg xmlns="http://www.w3.org/2000/svg" width="280" height="140" viewBox="0 0 280 140">
    <defs>
        <filter id="a" width="104.9%" height="111.8%" x="-2.4%" y="-5.9%" filterUnits="objectBoundingBox">
            <feGaussianBlur in="SourceGraphic" stdDeviation="2"/>
        </filter>
    </defs>
    <g fill="none" fill-rule="evenodd">
        <path d="M0 0h280v140H0z"/>
        <path fill="#171B20" d="M45.034 42.368c0 1.344-.152 2.752-.456 4.224a11.48 11.48 0 0 1-1.68 4.056c-.816 1.232-1.952 2.248-3.408 3.048-1.456.8-3.336 1.2-5.64 1.2-2.88 0-5.28-.744-7.2-2.232-1.92-1.488-3.2-3.4-3.84-5.736l7.248-2.448c.224.896.632 1.616 1.224 2.16s1.32.816 2.184.816c1.344 0 2.232-.464 2.664-1.392.432-.928.648-2.144.648-3.648V20h8.256v22.368zm29.717-.432c0 1.952-.352 3.72-1.056 5.304-.704 1.584-1.664 2.928-2.88 4.032a13.184 13.184 0 0 1-4.224 2.568c-1.6.608-3.312.912-5.136.912-1.792 0-3.496-.304-5.112-.912-1.616-.608-3.024-1.464-4.224-2.568-1.2-1.104-2.152-2.448-2.856-4.032-.704-1.584-1.056-3.352-1.056-5.304 0-1.952.352-3.712 1.056-5.28.704-1.568 1.656-2.896 2.856-3.984s2.608-1.92 4.224-2.496a15.111 15.111 0 0 1 5.112-.864c1.824 0 3.536.288 5.136.864 1.6.576 3.008 1.408 4.224 2.496 1.216 1.088 2.176 2.416 2.88 3.984.704 1.568 1.056 3.328 1.056 5.28zm-7.584 0c0-.768-.128-1.52-.384-2.256a5.966 5.966 0 0 0-1.104-1.944 5.612 5.612 0 0 0-1.776-1.368c-.704-.352-1.52-.528-2.448-.528-.928 0-1.744.176-2.448.528a5.34 5.34 0 0 0-1.752 1.368 5.86 5.86 0 0 0-1.056 1.944 7.233 7.233 0 0 0 0 4.512c.24.736.6 1.4 1.08 1.992a5.315 5.315 0 0 0 1.776 1.416c.704.352 1.52.528 2.448.528.928 0 1.744-.176 2.448-.528a5.315 5.315 0 0 0 1.776-1.416c.48-.592.84-1.256 1.08-1.992.24-.736.36-1.488.36-2.256zm26.308 12.048v-3.312h-.096a6.766 6.766 0 0 1-1.128 1.536 7.11 7.11 0 0 1-1.632 1.248 9.99 9.99 0 0 1-2.064.864 8.28 8.28 0 0 1-2.376.336c-1.6 0-2.952-.288-4.056-.864-1.104-.576-2-1.32-2.688-2.232a8.803 8.803 0 0 1-1.488-3.12 14.14 14.14 0 0 1-.456-3.576V30.08h7.92v12.96c0 .672.048 1.312.144 1.92.096.608.28 1.152.552 1.632s.632.856 1.08 1.128c.448.272 1.04.408 1.776.408 1.376 0 2.424-.512 3.144-1.536.72-1.024 1.08-2.224 1.08-3.6V30.08h7.872v23.904h-7.584zm27.221-17.472a6.131 6.131 0 0 0-1.032-.192 10.379 10.379 0 0 0-.984-.048c-1.056 0-1.944.192-2.664.576-.72.384-1.296.848-1.728 1.392a5.273 5.273 0 0 0-.936 1.776c-.192.64-.288 1.2-.288 1.68v12.288h-7.872V30.08h7.584v3.456h.096a7.759 7.759 0 0 1 2.592-2.976c1.12-.768 2.416-1.152 3.888-1.152.32 0 .632.016.936.048.304.032.552.08.744.144l-.336 6.912zm17.189 17.472V40.928c0-.672-.056-1.312-.168-1.92a5.292 5.292 0 0 0-.552-1.608 2.863 2.863 0 0 0-1.08-1.104c-.464-.272-1.048-.408-1.752-.408s-1.32.136-1.848.408a3.74 3.74 0 0 0-1.32 1.128 5.123 5.123 0 0 0-.792 1.656 7.127 7.127 0 0 0-.264 1.944v12.96h-7.92V30.08h7.632v3.312h.096a7.892 7.892 0 0 1 1.128-1.512 6.772 6.772 0 0 1 1.632-1.272c.624-.352 1.304-.64 2.04-.864a8.037 8.037 0 0 1 2.352-.336c1.6 0 2.96.288 4.08.864 1.12.576 2.024 1.32 2.712 2.232.688.912 1.184 1.96 1.488 3.144.304 1.184.456 2.368.456 3.552v14.784h-7.92zm28.324-14.688c0-1.248-.392-2.32-1.176-3.216-.784-.896-1.96-1.344-3.528-1.344-.768 0-1.472.12-2.112.36-.64.24-1.2.568-1.68.984-.48.416-.864.904-1.152 1.464a4.286 4.286 0 0 0-.48 1.752h10.128zm7.248 3.024v.96c0 .32-.016.624-.048.912h-17.328c.064.672.264 1.28.6 1.824a5.186 5.186 0 0 0 1.296 1.416c.528.4 1.12.712 1.776.936a6.27 6.27 0 0 0 2.04.336c1.248 0 2.304-.232 3.168-.696a6.267 6.267 0 0 0 2.112-1.8l5.472 3.456c-1.12 1.632-2.6 2.888-4.44 3.768-1.84.88-3.976 1.32-6.408 1.32-1.792 0-3.488-.28-5.088-.84-1.6-.56-3-1.376-4.2-2.448-1.2-1.072-2.144-2.392-2.832-3.96-.688-1.568-1.032-3.36-1.032-5.376 0-1.952.336-3.72 1.008-5.304.672-1.584 1.584-2.928 2.736-4.032 1.152-1.104 2.512-1.96 4.08-2.568 1.568-.608 3.264-.912 5.088-.912 1.76 0 3.376.296 4.848.888a10.553 10.553 0 0 1 3.792 2.568c1.056 1.12 1.88 2.48 2.472 4.08.592 1.6.888 3.424.888 5.472zm16.373 15.264c-.48 1.248-1.016 2.36-1.608 3.336a10.045 10.045 0 0 1-2.112 2.496c-.816.688-1.776 1.208-2.88 1.56-1.104.352-2.408.528-3.912.528-.736 0-1.496-.048-2.28-.144a14.12 14.12 0 0 1-2.04-.384l.864-6.624c.384.128.808.232 1.272.312.464.08.888.12 1.272.12 1.216 0 2.096-.28 2.64-.84.544-.56 1.008-1.352 1.392-2.376l.768-1.968-9.984-23.52h8.736l5.328 15.36h.144l4.752-15.36h8.352L189.83 57.584zm30.249-21.6v9.12c0 1.12.216 1.96.648 2.52.432.56 1.208.84 2.328.84a8.37 8.37 0 0 0 1.224-.096 4.2 4.2 0 0 0 1.08-.288l.096 5.76c-.544.192-1.232.36-2.064.504a14.61 14.61 0 0 1-2.496.216c-1.6 0-2.944-.2-4.032-.6-1.088-.4-1.96-.976-2.616-1.728-.656-.752-1.128-1.648-1.416-2.688-.288-1.04-.432-2.2-.432-3.48v-10.08h-3.84V30.08h3.792v-6.288h7.728v6.288h5.616v5.904h-5.616zm32.644 5.952c0 1.952-.352 3.72-1.056 5.304-.704 1.584-1.664 2.928-2.88 4.032a13.184 13.184 0 0 1-4.224 2.568c-1.6.608-3.312.912-5.136.912-1.792 0-3.496-.304-5.112-.912-1.616-.608-3.024-1.464-4.224-2.568-1.2-1.104-2.152-2.448-2.856-4.032-.704-1.584-1.056-3.352-1.056-5.304 0-1.952.352-3.712 1.056-5.28.704-1.568 1.656-2.896 2.856-3.984s2.608-1.92 4.224-2.496a15.111 15.111 0 0 1 5.112-.864c1.824 0 3.536.288 5.136.864 1.6.576 3.008 1.408 4.224 2.496 1.216 1.088 2.176 2.416 2.88 3.984.704 1.568 1.056 3.328 1.056 5.28zm-7.584 0c0-.768-.128-1.52-.384-2.256a5.966 5.966 0 0 0-1.104-1.944 5.612 5.612 0 0 0-1.776-1.368c-.704-.352-1.52-.528-2.448-.528-.928 0-1.744.176-2.448.528a5.34 5.34 0 0 0-1.752 1.368 5.86 5.86 0 0 0-1.056 1.944 7.233 7.233 0 0 0 0 4.512c.24.736.6 1.4 1.08 1.992a5.315 5.315 0 0 0 1.776 1.416c.704.352 1.52.528 2.448.528.928 0 1.744-.176 2.448-.528a5.315 5.315 0 0 0 1.776-1.416c.48-.592.84-1.256 1.08-1.992.24-.736.36-1.488.36-2.256zm-201.643 58.16c0 1.856-.368 3.416-1.104 4.68a8.762 8.762 0 0 1-2.928 3.048c-1.216.768-2.6 1.32-4.152 1.656a22.507 22.507 0 0 1-4.776.504H17V76h13.536c1.312 0 2.656.136 4.032.408 1.376.272 2.624.736 3.744 1.392a7.923 7.923 0 0 1 2.736 2.664c.704 1.12 1.056 2.544 1.056 4.272 0 1.888-.512 3.448-1.536 4.68-1.024 1.232-2.368 2.12-4.032 2.664v.096c.96.16 1.864.456 2.712.888a7.84 7.84 0 0 1 2.208 1.656 7.744 7.744 0 0 1 1.488 2.352c.368.896.552 1.904.552 3.024zM34.184 85.84c0-1.152-.44-1.992-1.32-2.52-.88-.528-2.184-.792-3.912-.792H24.92v7.008h4.416c1.536 0 2.728-.312 3.576-.936.848-.624 1.272-1.544 1.272-2.76zm1.104 13.488c0-1.408-.528-2.384-1.584-2.928s-2.464-.816-4.224-.816h-4.56v7.776h4.608c.64 0 1.304-.056 1.992-.168a6.267 6.267 0 0 0 1.872-.6 3.597 3.597 0 0 0 1.368-1.224c.352-.528.528-1.208.528-2.04zm27.653-4.032c0-1.248-.392-2.32-1.176-3.216-.784-.896-1.96-1.344-3.528-1.344-.768 0-1.472.12-2.112.36-.64.24-1.2.568-1.68.984-.48.416-.864.904-1.152 1.464a4.286 4.286 0 0 0-.48 1.752H62.94zm7.248 3.024v.96c0 .32-.016.624-.048.912H52.813c.064.672.264 1.28.6 1.824a5.186 5.186 0 0 0 1.296 1.416c.528.4 1.12.712 1.776.936a6.27 6.27 0 0 0 2.04.336c1.248 0 2.304-.232 3.168-.696a6.267 6.267 0 0 0 2.112-1.8l5.472 3.456c-1.12 1.632-2.6 2.888-4.44 3.768-1.84.88-3.976 1.32-6.408 1.32-1.792 0-3.488-.28-5.088-.84-1.6-.56-3-1.376-4.2-2.448-1.2-1.072-2.144-2.392-2.832-3.96-.688-1.568-1.032-3.36-1.032-5.376 0-1.952.336-3.72 1.008-5.304.672-1.584 1.584-2.928 2.736-4.032 1.152-1.104 2.512-1.96 4.08-2.568 1.568-.608 3.264-.912 5.088-.912 1.76 0 3.376.296 4.848.888a10.553 10.553 0 0 1 3.792 2.568c1.056 1.12 1.88 2.48 2.472 4.08.592 1.6.888 3.424.888 5.472zm11.428-19.872c0 .608-.12 1.176-.36 1.704s-.56.984-.96 1.368c-.4.384-.88.688-1.44.912a4.675 4.675 0 0 1-1.752.336c-1.28 0-2.352-.424-3.216-1.272-.864-.848-1.296-1.864-1.296-3.048 0-.576.112-1.128.336-1.656.224-.528.544-.984.96-1.368a5.196 5.196 0 0 1 1.44-.936 4.35 4.35 0 0 1 1.776-.36c.608 0 1.192.112 1.752.336.56.224 1.04.528 1.44.912.4.384.72.84.96 1.368.24.528.36 1.096.36 1.704zm-8.448 31.536V86.08h7.872v23.904H73.17zm27.797 0V96.928c0-.672-.056-1.312-.168-1.92a5.292 5.292 0 0 0-.552-1.608 2.863 2.863 0 0 0-1.08-1.104c-.464-.272-1.048-.408-1.752-.408s-1.32.136-1.848.408a3.74 3.74 0 0 0-1.32 1.128 5.123 5.123 0 0 0-.792 1.656 7.127 7.127 0 0 0-.264 1.944v12.96h-7.92V86.08h7.632v3.312h.096a7.892 7.892 0 0 1 1.128-1.512 6.772 6.772 0 0 1 1.632-1.272c.624-.352 1.304-.64 2.04-.864a8.037 8.037 0 0 1 2.352-.336c1.6 0 2.96.288 4.08.864 1.12.576 2.024 1.32 2.712 2.232.688.912 1.184 1.96 1.488 3.144.304 1.184.456 2.368.456 3.552v14.784h-7.92zm37.204-2.256c0 2.336-.336 4.368-1.008 6.096-.672 1.728-1.616 3.16-2.832 4.296-1.216 1.136-2.696 1.984-4.44 2.544-1.744.56-3.672.84-5.784.84-2.112 0-4.28-.32-6.504-.96-2.224-.64-4.152-1.568-5.784-2.784l3.936-5.616a11.535 11.535 0 0 0 3.816 2.28c1.392.496 2.76.744 4.104.744 2.304 0 4.008-.608 5.112-1.824 1.104-1.216 1.656-2.832 1.656-4.848v-1.44h-.144c-.736.96-1.728 1.728-2.976 2.304-1.248.576-2.672.864-4.272.864-1.824 0-3.44-.328-4.848-.984-1.408-.656-2.6-1.544-3.576-2.664s-1.72-2.424-2.232-3.912a14.43 14.43 0 0 1-.768-4.728c0-1.664.256-3.248.768-4.752a12.157 12.157 0 0 1 2.232-3.984 10.892 10.892 0 0 1 3.576-2.76c1.408-.688 3.008-1.032 4.8-1.032 1.504 0 2.944.304 4.32.912a7.486 7.486 0 0 1 3.312 2.832h.096V86.08h7.44v21.648zm-7.488-9.84c0-.8-.136-1.568-.408-2.304a5.86 5.86 0 0 0-1.176-1.944c-.512-.56-1.12-1-1.824-1.32-.704-.32-1.504-.48-2.4-.48-.896 0-1.688.16-2.376.48a5.267 5.267 0 0 0-1.752 1.296 5.693 5.693 0 0 0-1.104 1.92 7.109 7.109 0 0 0-.384 2.352c0 .8.128 1.568.384 2.304a5.966 5.966 0 0 0 1.104 1.944 5.397 5.397 0 0 0 1.752 1.344c.688.336 1.48.504 2.376.504.896 0 1.704-.168 2.424-.504a5.69 5.69 0 0 0 1.824-1.32 5.799 5.799 0 0 0 1.152-1.92 6.73 6.73 0 0 0 .408-2.352zm44.313 12.096l-2.64-6.672h-13.152l-2.496 6.672h-8.928L162.035 76h7.968l14.112 33.984h-9.12zm-9.12-24.912l-4.32 11.664h8.544l-4.224-11.664zm43.973 22.656c0 2.336-.336 4.368-1.008 6.096-.672 1.728-1.616 3.16-2.832 4.296-1.216 1.136-2.696 1.984-4.44 2.544-1.744.56-3.672.84-5.784.84-2.112 0-4.28-.32-6.504-.96-2.224-.64-4.152-1.568-5.784-2.784l3.936-5.616a11.535 11.535 0 0 0 3.816 2.28c1.392.496 2.76.744 4.104.744 2.304 0 4.008-.608 5.112-1.824 1.104-1.216 1.656-2.832 1.656-4.848v-1.44h-.144c-.736.96-1.728 1.728-2.976 2.304-1.248.576-2.672.864-4.272.864-1.824 0-3.44-.328-4.848-.984-1.408-.656-2.6-1.544-3.576-2.664s-1.72-2.424-2.232-3.912a14.43 14.43 0 0 1-.768-4.728c0-1.664.256-3.248.768-4.752a12.157 12.157 0 0 1 2.232-3.984 10.892 10.892 0 0 1 3.576-2.76c1.408-.688 3.008-1.032 4.8-1.032 1.504 0 2.944.304 4.32.912a7.486 7.486 0 0 1 3.312 2.832h.096V86.08h7.44v21.648zm-7.488-9.84c0-.8-.136-1.568-.408-2.304a5.86 5.86 0 0 0-1.176-1.944c-.512-.56-1.12-1-1.824-1.32-.704-.32-1.504-.48-2.4-.48-.896 0-1.688.16-2.376.48a5.267 5.267 0 0 0-1.752 1.296 5.693 5.693 0 0 0-1.104 1.92 7.109 7.109 0 0 0-.384 2.352c0 .8.128 1.568.384 2.304a5.966 5.966 0 0 0 1.104 1.944 5.397 5.397 0 0 0 1.752 1.344c.688.336 1.48.504 2.376.504.896 0 1.704-.168 2.424-.504a5.69 5.69 0 0 0 1.824-1.32 5.799 5.799 0 0 0 1.152-1.92 6.73 6.73 0 0 0 .408-2.352zm20.26-19.44c0 .608-.12 1.176-.36 1.704s-.56.984-.96 1.368c-.4.384-.88.688-1.44.912a4.675 4.675 0 0 1-1.751.336c-1.28 0-2.352-.424-3.216-1.272-.864-.848-1.296-1.864-1.296-3.048 0-.576.112-1.128.336-1.656.224-.528.544-.984.96-1.368a5.196 5.196 0 0 1 1.44-.936 4.35 4.35 0 0 1 1.776-.36c.608 0 1.192.112 1.752.336.56.224 1.04.528 1.44.912.4.384.72.84.96 1.368.24.528.36 1.096.36 1.704zm-8.447 31.536V86.08h7.872v23.904h-7.872zm12.196 0V73.696h7.968v36.288h-7.968zm28.66-14.688c0-1.248-.391-2.32-1.175-3.216-.784-.896-1.96-1.344-3.528-1.344-.768 0-1.472.12-2.112.36-.64.24-1.2.568-1.68.984-.48.416-.864.904-1.152 1.464a4.286 4.286 0 0 0-.48 1.752h10.128zm7.249 3.024v.96c0 .32-.016.624-.048.912h-17.328c.064.672.264 1.28.6 1.824a5.186 5.186 0 0 0 1.296 1.416c.528.4 1.12.712 1.776.936a6.27 6.27 0 0 0 2.04.336c1.248 0 2.304-.232 3.168-.696a6.267 6.267 0 0 0 2.112-1.8l5.472 3.456c-1.12 1.632-2.6 2.888-4.44 3.768-1.84.88-3.976 1.32-6.408 1.32-1.792 0-3.488-.28-5.088-.84-1.6-.56-3-1.376-4.2-2.448-1.2-1.072-2.144-2.392-2.832-3.96-.688-1.568-1.032-3.36-1.032-5.376 0-1.952.336-3.72 1.008-5.304.672-1.584 1.584-2.928 2.736-4.032 1.152-1.104 2.512-1.96 4.08-2.568 1.568-.608 3.264-.912 5.088-.912 1.76 0 3.376.296 4.848.888a10.553 10.553 0 0 1 3.792 2.568c1.056 1.12 1.88 2.48 2.472 4.08.592 1.6.888 3.424.888 5.472z" filter="url(#a)" opacity=".1"/>
        <path fill="#171B20" d="M45.034 42.368c0 1.344-.152 2.752-.456 4.224a11.48 11.48 0 0 1-1.68 4.056c-.816 1.232-1.952 2.248-3.408 3.048-1.456.8-3.336 1.2-5.64 1.2-2.88 0-5.28-.744-7.2-2.232-1.92-1.488-3.2-3.4-3.84-5.736l7.248-2.448c.224.896.632 1.616 1.224 2.16s1.32.816 2.184.816c1.344 0 2.232-.464 2.664-1.392.432-.928.648-2.144.648-3.648V20h8.256v22.368zm29.717-.432c0 1.952-.352 3.72-1.056 5.304-.704 1.584-1.664 2.928-2.88 4.032a13.184 13.184 0 0 1-4.224 2.568c-1.6.608-3.312.912-5.136.912-1.792 0-3.496-.304-5.112-.912-1.616-.608-3.024-1.464-4.224-2.568-1.2-1.104-2.152-2.448-2.856-4.032-.704-1.584-1.056-3.352-1.056-5.304 0-1.952.352-3.712 1.056-5.28.704-1.568 1.656-2.896 2.856-3.984s2.608-1.92 4.224-2.496a15.111 15.111 0 0 1 5.112-.864c1.824 0 3.536.288 5.136.864 1.6.576 3.008 1.408 4.224 2.496 1.216 1.088 2.176 2.416 2.88 3.984.704 1.568 1.056 3.328 1.056 5.28zm-7.584 0c0-.768-.128-1.52-.384-2.256a5.966 5.966 0 0 0-1.104-1.944 5.612 5.612 0 0 0-1.776-1.368c-.704-.352-1.52-.528-2.448-.528-.928 0-1.744.176-2.448.528a5.34 5.34 0 0 0-1.752 1.368 5.86 5.86 0 0 0-1.056 1.944 7.233 7.233 0 0 0 0 4.512c.24.736.6 1.4 1.08 1.992a5.315 5.315 0 0 0 1.776 1.416c.704.352 1.52.528 2.448.528.928 0 1.744-.176 2.448-.528a5.315 5.315 0 0 0 1.776-1.416c.48-.592.84-1.256 1.08-1.992.24-.736.36-1.488.36-2.256zm26.308 12.048v-3.312h-.096a6.766 6.766 0 0 1-1.128 1.536 7.11 7.11 0 0 1-1.632 1.248 9.99 9.99 0 0 1-2.064.864 8.28 8.28 0 0 1-2.376.336c-1.6 0-2.952-.288-4.056-.864-1.104-.576-2-1.32-2.688-2.232a8.803 8.803 0 0 1-1.488-3.12 14.14 14.14 0 0 1-.456-3.576V30.08h7.92v12.96c0 .672.048 1.312.144 1.92.096.608.28 1.152.552 1.632s.632.856 1.08 1.128c.448.272 1.04.408 1.776.408 1.376 0 2.424-.512 3.144-1.536.72-1.024 1.08-2.224 1.08-3.6V30.08h7.872v23.904h-7.584zm27.221-17.472a6.131 6.131 0 0 0-1.032-.192 10.379 10.379 0 0 0-.984-.048c-1.056 0-1.944.192-2.664.576-.72.384-1.296.848-1.728 1.392a5.273 5.273 0 0 0-.936 1.776c-.192.64-.288 1.2-.288 1.68v12.288h-7.872V30.08h7.584v3.456h.096a7.759 7.759 0 0 1 2.592-2.976c1.12-.768 2.416-1.152 3.888-1.152.32 0 .632.016.936.048.304.032.552.08.744.144l-.336 6.912zm17.189 17.472V40.928c0-.672-.056-1.312-.168-1.92a5.292 5.292 0 0 0-.552-1.608 2.863 2.863 0 0 0-1.08-1.104c-.464-.272-1.048-.408-1.752-.408s-1.32.136-1.848.408a3.74 3.74 0 0 0-1.32 1.128 5.123 5.123 0 0 0-.792 1.656 7.127 7.127 0 0 0-.264 1.944v12.96h-7.92V30.08h7.632v3.312h.096a7.892 7.892 0 0 1 1.128-1.512 6.772 6.772 0 0 1 1.632-1.272c.624-.352 1.304-.64 2.04-.864a8.037 8.037 0 0 1 2.352-.336c1.6 0 2.96.288 4.08.864 1.12.576 2.024 1.32 2.712 2.232.688.912 1.184 1.96 1.488 3.144.304 1.184.456 2.368.456 3.552v14.784h-7.92zm28.324-14.688c0-1.248-.392-2.32-1.176-3.216-.784-.896-1.96-1.344-3.528-1.344-.768 0-1.472.12-2.112.36-.64.24-1.2.568-1.68.984-.48.416-.864.904-1.152 1.464a4.286 4.286 0 0 0-.48 1.752h10.128zm7.248 3.024v.96c0 .32-.016.624-.048.912h-17.328c.064.672.264 1.28.6 1.824a5.186 5.186 0 0 0 1.296 1.416c.528.4 1.12.712 1.776.936a6.27 6.27 0 0 0 2.04.336c1.248 0 2.304-.232 3.168-.696a6.267 6.267 0 0 0 2.112-1.8l5.472 3.456c-1.12 1.632-2.6 2.888-4.44 3.768-1.84.88-3.976 1.32-6.408 1.32-1.792 0-3.488-.28-5.088-.84-1.6-.56-3-1.376-4.2-2.448-1.2-1.072-2.144-2.392-2.832-3.96-.688-1.568-1.032-3.36-1.032-5.376 0-1.952.336-3.72 1.008-5.304.672-1.584 1.584-2.928 2.736-4.032 1.152-1.104 2.512-1.96 4.08-2.568 1.568-.608 3.264-.912 5.088-.912 1.76 0 3.376.296 4.848.888a10.553 10.553 0 0 1 3.792 2.568c1.056 1.12 1.88 2.48 2.472 4.08.592 1.6.888 3.424.888 5.472zm16.373 15.264c-.48 1.248-1.016 2.36-1.608 3.336a10.045 10.045 0 0 1-2.112 2.496c-.816.688-1.776 1.208-2.88 1.56-1.104.352-2.408.528-3.912.528-.736 0-1.496-.048-2.28-.144a14.12 14.12 0 0 1-2.04-.384l.864-6.624c.384.128.808.232 1.272.312.464.08.888.12 1.272.12 1.216 0 2.096-.28 2.64-.84.544-.56 1.008-1.352 1.392-2.376l.768-1.968-9.984-23.52h8.736l5.328 15.36h.144l4.752-15.36h8.352L189.83 57.584zm30.249-21.6v9.12c0 1.12.216 1.96.648 2.52.432.56 1.208.84 2.328.84a8.37 8.37 0 0 0 1.224-.096 4.2 4.2 0 0 0 1.08-.288l.096 5.76c-.544.192-1.232.36-2.064.504a14.61 14.61 0 0 1-2.496.216c-1.6 0-2.944-.2-4.032-.6-1.088-.4-1.96-.976-2.616-1.728-.656-.752-1.128-1.648-1.416-2.688-.288-1.04-.432-2.2-.432-3.48v-10.08h-3.84V30.08h3.792v-6.288h7.728v6.288h5.616v5.904h-5.616zm32.644 5.952c0 1.952-.352 3.72-1.056 5.304-.704 1.584-1.664 2.928-2.88 4.032a13.184 13.184 0 0 1-4.224 2.568c-1.6.608-3.312.912-5.136.912-1.792 0-3.496-.304-5.112-.912-1.616-.608-3.024-1.464-4.224-2.568-1.2-1.104-2.152-2.448-2.856-4.032-.704-1.584-1.056-3.352-1.056-5.304 0-1.952.352-3.712 1.056-5.28.704-1.568 1.656-2.896 2.856-3.984s2.608-1.92 4.224-2.496a15.111 15.111 0 0 1 5.112-.864c1.824 0 3.536.288 5.136.864 1.6.576 3.008 1.408 4.224 2.496 1.216 1.088 2.176 2.416 2.88 3.984.704 1.568 1.056 3.328 1.056 5.28zm-7.584 0c0-.768-.128-1.52-.384-2.256a5.966 5.966 0 0 0-1.104-1.944 5.612 5.612 0 0 0-1.776-1.368c-.704-.352-1.52-.528-2.448-.528-.928 0-1.744.176-2.448.528a5.34 5.34 0 0 0-1.752 1.368 5.86 5.86 0 0 0-1.056 1.944 7.233 7.233 0 0 0 0 4.512c.24.736.6 1.4 1.08 1.992a5.315 5.315 0 0 0 1.776 1.416c.704.352 1.52.528 2.448.528.928 0 1.744-.176 2.448-.528a5.315 5.315 0 0 0 1.776-1.416c.48-.592.84-1.256 1.08-1.992.24-.736.36-1.488.36-2.256zm-201.643 58.16c0 1.856-.368 3.416-1.104 4.68a8.762 8.762 0 0 1-2.928 3.048c-1.216.768-2.6 1.32-4.152 1.656a22.507 22.507 0 0 1-4.776.504H17V76h13.536c1.312 0 2.656.136 4.032.408 1.376.272 2.624.736 3.744 1.392a7.923 7.923 0 0 1 2.736 2.664c.704 1.12 1.056 2.544 1.056 4.272 0 1.888-.512 3.448-1.536 4.68-1.024 1.232-2.368 2.12-4.032 2.664v.096c.96.16 1.864.456 2.712.888a7.84 7.84 0 0 1 2.208 1.656 7.744 7.744 0 0 1 1.488 2.352c.368.896.552 1.904.552 3.024zM34.184 85.84c0-1.152-.44-1.992-1.32-2.52-.88-.528-2.184-.792-3.912-.792H24.92v7.008h4.416c1.536 0 2.728-.312 3.576-.936.848-.624 1.272-1.544 1.272-2.76zm1.104 13.488c0-1.408-.528-2.384-1.584-2.928s-2.464-.816-4.224-.816h-4.56v7.776h4.608c.64 0 1.304-.056 1.992-.168a6.267 6.267 0 0 0 1.872-.6 3.597 3.597 0 0 0 1.368-1.224c.352-.528.528-1.208.528-2.04zm27.653-4.032c0-1.248-.392-2.32-1.176-3.216-.784-.896-1.96-1.344-3.528-1.344-.768 0-1.472.12-2.112.36-.64.24-1.2.568-1.68.984-.48.416-.864.904-1.152 1.464a4.286 4.286 0 0 0-.48 1.752H62.94zm7.248 3.024v.96c0 .32-.016.624-.048.912H52.813c.064.672.264 1.28.6 1.824a5.186 5.186 0 0 0 1.296 1.416c.528.4 1.12.712 1.776.936a6.27 6.27 0 0 0 2.04.336c1.248 0 2.304-.232 3.168-.696a6.267 6.267 0 0 0 2.112-1.8l5.472 3.456c-1.12 1.632-2.6 2.888-4.44 3.768-1.84.88-3.976 1.32-6.408 1.32-1.792 0-3.488-.28-5.088-.84-1.6-.56-3-1.376-4.2-2.448-1.2-1.072-2.144-2.392-2.832-3.96-.688-1.568-1.032-3.36-1.032-5.376 0-1.952.336-3.72 1.008-5.304.672-1.584 1.584-2.928 2.736-4.032 1.152-1.104 2.512-1.96 4.08-2.568 1.568-.608 3.264-.912 5.088-.912 1.76 0 3.376.296 4.848.888a10.553 10.553 0 0 1 3.792 2.568c1.056 1.12 1.88 2.48 2.472 4.08.592 1.6.888 3.424.888 5.472zm11.428-19.872c0 .608-.12 1.176-.36 1.704s-.56.984-.96 1.368c-.4.384-.88.688-1.44.912a4.675 4.675 0 0 1-1.752.336c-1.28 0-2.352-.424-3.216-1.272-.864-.848-1.296-1.864-1.296-3.048 0-.576.112-1.128.336-1.656.224-.528.544-.984.96-1.368a5.196 5.196 0 0 1 1.44-.936 4.35 4.35 0 0 1 1.776-.36c.608 0 1.192.112 1.752.336.56.224 1.04.528 1.44.912.4.384.72.84.96 1.368.24.528.36 1.096.36 1.704zm-8.448 31.536V86.08h7.872v23.904H73.17zm27.797 0V96.928c0-.672-.056-1.312-.168-1.92a5.292 5.292 0 0 0-.552-1.608 2.863 2.863 0 0 0-1.08-1.104c-.464-.272-1.048-.408-1.752-.408s-1.32.136-1.848.408a3.74 3.74 0 0 0-1.32 1.128 5.123 5.123 0 0 0-.792 1.656 7.127 7.127 0 0 0-.264 1.944v12.96h-7.92V86.08h7.632v3.312h.096a7.892 7.892 0 0 1 1.128-1.512 6.772 6.772 0 0 1 1.632-1.272c.624-.352 1.304-.64 2.04-.864a8.037 8.037 0 0 1 2.352-.336c1.6 0 2.96.288 4.08.864 1.12.576 2.024 1.32 2.712 2.232.688.912 1.184 1.96 1.488 3.144.304 1.184.456 2.368.456 3.552v14.784h-7.92zm37.204-2.256c0 2.336-.336 4.368-1.008 6.096-.672 1.728-1.616 3.16-2.832 4.296-1.216 1.136-2.696 1.984-4.44 2.544-1.744.56-3.672.84-5.784.84-2.112 0-4.28-.32-6.504-.96-2.224-.64-4.152-1.568-5.784-2.784l3.936-5.616a11.535 11.535 0 0 0 3.816 2.28c1.392.496 2.76.744 4.104.744 2.304 0 4.008-.608 5.112-1.824 1.104-1.216 1.656-2.832 1.656-4.848v-1.44h-.144c-.736.96-1.728 1.728-2.976 2.304-1.248.576-2.672.864-4.272.864-1.824 0-3.44-.328-4.848-.984-1.408-.656-2.6-1.544-3.576-2.664s-1.72-2.424-2.232-3.912a14.43 14.43 0 0 1-.768-4.728c0-1.664.256-3.248.768-4.752a12.157 12.157 0 0 1 2.232-3.984 10.892 10.892 0 0 1 3.576-2.76c1.408-.688 3.008-1.032 4.8-1.032 1.504 0 2.944.304 4.32.912a7.486 7.486 0 0 1 3.312 2.832h.096V86.08h7.44v21.648zm-7.488-9.84c0-.8-.136-1.568-.408-2.304a5.86 5.86 0 0 0-1.176-1.944c-.512-.56-1.12-1-1.824-1.32-.704-.32-1.504-.48-2.4-.48-.896 0-1.688.16-2.376.48a5.267 5.267 0 0 0-1.752 1.296 5.693 5.693 0 0 0-1.104 1.92 7.109 7.109 0 0 0-.384 2.352c0 .8.128 1.568.384 2.304a5.966 5.966 0 0 0 1.104 1.944 5.397 5.397 0 0 0 1.752 1.344c.688.336 1.48.504 2.376.504.896 0 1.704-.168 2.424-.504a5.69 5.69 0 0 0 1.824-1.32 5.799 5.799 0 0 0 1.152-1.92 6.73 6.73 0 0 0 .408-2.352zm44.313 12.096l-2.64-6.672h-13.152l-2.496 6.672h-8.928L162.035 76h7.968l14.112 33.984h-9.12zm-9.12-24.912l-4.32 11.664h8.544l-4.224-11.664zm43.973 22.656c0 2.336-.336 4.368-1.008 6.096-.672 1.728-1.616 3.16-2.832 4.296-1.216 1.136-2.696 1.984-4.44 2.544-1.744.56-3.672.84-5.784.84-2.112 0-4.28-.32-6.504-.96-2.224-.64-4.152-1.568-5.784-2.784l3.936-5.616a11.535 11.535 0 0 0 3.816 2.28c1.392.496 2.76.744 4.104.744 2.304 0 4.008-.608 5.112-1.824 1.104-1.216 1.656-2.832 1.656-4.848v-1.44h-.144c-.736.96-1.728 1.728-2.976 2.304-1.248.576-2.672.864-4.272.864-1.824 0-3.44-.328-4.848-.984-1.408-.656-2.6-1.544-3.576-2.664s-1.72-2.424-2.232-3.912a14.43 14.43 0 0 1-.768-4.728c0-1.664.256-3.248.768-4.752a12.157 12.157 0 0 1 2.232-3.984 10.892 10.892 0 0 1 3.576-2.76c1.408-.688 3.008-1.032 4.8-1.032 1.504 0 2.944.304 4.32.912a7.486 7.486 0 0 1 3.312 2.832h.096V86.08h7.44v21.648zm-7.488-9.84c0-.8-.136-1.568-.408-2.304a5.86 5.86 0 0 0-1.176-1.944c-.512-.56-1.12-1-1.824-1.32-.704-.32-1.504-.48-2.4-.48-.896 0-1.688.16-2.376.48a5.267 5.267 0 0 0-1.752 1.296 5.693 5.693 0 0 0-1.104 1.92 7.109 7.109 0 0 0-.384 2.352c0 .8.128 1.568.384 2.304a5.966 5.966 0 0 0 1.104 1.944 5.397 5.397 0 0 0 1.752 1.344c.688.336 1.48.504 2.376.504.896 0 1.704-.168 2.424-.504a5.69 5.69 0 0 0 1.824-1.32 5.799 5.799 0 0 0 1.152-1.92 6.73 6.73 0 0 0 .408-2.352zm20.26-19.44c0 .608-.12 1.176-.36 1.704s-.56.984-.96 1.368c-.4.384-.88.688-1.44.912a4.675 4.675 0 0 1-1.751.336c-1.28 0-2.352-.424-3.216-1.272-.864-.848-1.296-1.864-1.296-3.048 0-.576.112-1.128.336-1.656.224-.528.544-.984.96-1.368a5.196 5.196 0 0 1 1.44-.936 4.35 4.35 0 0 1 1.776-.36c.608 0 1.192.112 1.752.336.56.224 1.04.528 1.44.912.4.384.72.84.96 1.368.24.528.36 1.096.36 1.704zm-8.447 31.536V86.08h7.872v23.904h-7.872zm12.196 0V73.696h7.968v36.288h-7.968zm28.66-14.688c0-1.248-.391-2.32-1.175-3.216-.784-.896-1.96-1.344-3.528-1.344-.768 0-1.472.12-2.112.36-.64.24-1.2.568-1.68.984-.48.416-.864.904-1.152 1.464a4.286 4.286 0 0 0-.48 1.752h10.128zm7.249 3.024v.96c0 .32-.016.624-.048.912h-17.328c.064.672.264 1.28.6 1.824a5.186 5.186 0 0 0 1.296 1.416c.528.4 1.12.712 1.776.936a6.27 6.27 0 0 0 2.04.336c1.248 0 2.304-.232 3.168-.696a6.267 6.267 0 0 0 2.112-1.8l5.472 3.456c-1.12 1.632-2.6 2.888-4.44 3.768-1.84.88-3.976 1.32-6.408 1.32-1.792 0-3.488-.28-5.088-.84-1.6-.56-3-1.376-4.2-2.448-1.2-1.072-2.144-2.392-2.832-3.96-.688-1.568-1.032-3.36-1.032-5.376 0-1.952.336-3.72 1.008-5.304.672-1.584 1.584-2.928 2.736-4.032 1.152-1.104 2.512-1.96 4.08-2.568 1.568-.608 3.264-.912 5.088-.912 1.76 0 3.376.296 4.848.888a10.553 10.553 0 0 1 3.792 2.568c1.056 1.12 1.88 2.48 2.472 4.08.592 1.6.888 3.424.888 5.472z"/>
    </g>
</svg>
