<svg xmlns="http://www.w3.org/2000/svg" xmlns:xlink="http://www.w3.org/1999/xlink" width="363" height="363" viewBox="0 0 363 363">
    <defs>
        <path id="a" d="M0 0h363v363H0z"/>
        <linearGradient id="b" x1="-3.084%" x2="48.556%" y1="-6.478%" y2="69.922%">
            <stop offset="0%" stop-color="#C2F52A" stop-opacity="0"/>
            <stop offset="44.208%" stop-color="#2AF598" stop-opacity=".3"/>
            <stop offset="100%" stop-color="#008CFD"/>
        </linearGradient>
        <linearGradient id="d" x1="42.77%" x2="21.18%" y1="-16.777%" y2="101.547%">
            <stop offset="0%" stop-color="#C2F52A" stop-opacity="0"/>
            <stop offset="56.989%" stop-color="#2AF598" stop-opacity=".5"/>
            <stop offset="100%" stop-color="#008CFD"/>
        </linearGradient>
    </defs>
    <g fill="none" fill-rule="evenodd">
        <mask id="c" fill="#fff">
            <use xlink:href="#a"/>
        </mask>
        <path fill="url(#b)" fill-rule="nonzero" d="M28.682 156.879l392.677-9.03v4.209l-392.677 9.029v-4.208zm17.304-8.417l392.677-9.03v4.209l-392.677 9.03v-4.21zm0-8.417l392.677-9.03v4.209l-392.677 9.03v-4.209zm-17.304-8.417l392.677-9.03v4.21l-392.677 9.029v-4.209zm17.304-8.417l392.677-9.029v4.208l-392.677 9.03v-4.209zm0-8.416l392.677-9.03v4.209l-392.677 9.029v-4.208z" mask="url(#c)" transform="rotate(-44 233.672 133.426)"/>
        <path fill="url(#d)" fill-rule="nonzero" d="M173.014 161.601l-2.938 3.013L45.506 38.027 48.43 35l124.584 126.601zm32.144 32.665l91.826 93.312-2.924 3.027-91.848-93.335 2.946-3.004zm-37.742-26.924l-2.937 3.013-113.59-115.43 2.923-3.027 113.604 115.444zm32.129 32.648l102.82 104.486-2.923 3.028-102.844-104.51 2.947-3.004zm-38.004-26.623l-2.938 3.013L45.042 60.98l2.923-3.027 113.576 115.414zM193.652 206L296.52 310.53l-2.923 3.027-102.89-104.555 2.946-3.004zm-38.265-26.322l-2.937 3.013L27.966 56.19l2.923-3.026 124.498 126.513zm32.094 32.614l91.962 93.45-2.923 3.028-91.985-93.474 2.946-3.004zm-37.691-26.873l-2.938 3.012L33.348 73.09l2.924-3.028L149.79 185.418zm32.077 32.597L284.825 322.64l-2.923 3.027-102.98-104.648 2.945-3.004zm-37.953-26.572l-2.938 3.013L27.501 79.144l2.924-3.028 113.49 115.327zm32.061 32.58l103.004 104.672-2.924 3.027L173.03 227.027l2.946-3.004z" mask="url(#c)"/>
    </g>
</svg>
