<svg xmlns="http://www.w3.org/2000/svg" xmlns:xlink="http://www.w3.org/1999/xlink" width="360" height="232" viewBox="0 0 360 232">
    <defs>
        <path id="a" d="M0 0h360v232H0z"/>
        <linearGradient id="b" x1="6.381%" x2="48.556%" y1="50%" y2="69.922%">
            <stop offset="0%" stop-color="#C2F52A" stop-opacity="0"/>
            <stop offset="44.208%" stop-color="#2AF598" stop-opacity=".3"/>
            <stop offset="100%" stop-color="#008CFD"/>
        </linearGradient>
        <linearGradient id="d" x1="24.266%" y1="31.155%" y2="95.508%">
            <stop offset="0%" stop-color="#C2F52A" stop-opacity="0"/>
            <stop offset="44.208%" stop-color="#2AF598" stop-opacity=".3"/>
            <stop offset="100%" stop-color="#008CFD"/>
        </linearGradient>
    </defs>
    <g fill="none" fill-rule="evenodd" transform="matrix(-1 0 0 1 360 0)">
        <mask id="c" fill="#fff">
            <use xlink:href="#a"/>
        </mask>
        <path fill="url(#b)" fill-rule="nonzero" d="M212.584 46.406l313.651-9.03v4.208l-313.651 9.03v-4.208zm13.82-8.417l313.652-9.03v4.209l-313.651 9.03v-4.21zm0-8.417l313.652-9.03v4.209l-313.651 9.03v-4.21zm-13.82-8.417l313.651-9.03v4.21l-313.651 9.029v-4.209zm13.82-8.417l313.652-9.03v4.21l-313.651 9.029v-4.209zm0-8.416l313.652-9.03V-.5L226.405 8.53V4.322z" mask="url(#c)" opacity=".3" transform="rotate(-44 376.32 22.953)"/>
        <path fill="url(#d)" fill-rule="nonzero" d="M245.228 187.437l-2.888 3.064L.836-54.973 3.759-58l241.469 245.437zm-5.502 5.838l-2.888 3.064L6.165-38.126l2.923-3.027 230.638 234.428zm-5.775 6.128l-2.887 3.064L.318-32.07l2.923-3.027 230.71 234.501zm-6.048 6.418l-2.887 3.064L-16.704-36.81l2.923-3.027L227.903 205.82zm-5.501 5.838l-2.888 3.064-230.89-234.685 2.924-3.027 230.854 234.648zm-5.775 6.128l-2.888 3.063L-17.222-13.908l2.923-3.027 230.926 234.722z" mask="url(#c)" opacity=".3"/>
    </g>
</svg>
