<svg xmlns="http://www.w3.org/2000/svg" width="220" height="60" viewBox="0 0 220 60">
    <g fill="none" fill-rule="evenodd">
        <path d="M0 0h220v60H0z"/>
        <path fill="#171B20" d="M32.65 29.848c-.704-.896-1.624-1.608-2.76-2.136-1.136-.528-2.232-.792-3.288-.792-.544 0-1.096.048-1.656.144-.56.096-1.064.28-1.512.552a3.738 3.738 0 0 0-1.128 1.056c-.304.432-.456.984-.456 1.656 0 .576.12 1.056.36 1.44.24.384.592.72 1.056 1.008a9.412 9.412 0 0 0 1.656.792c.64.24 1.36.488 2.16.744 1.152.384 2.352.808 3.6 1.272a13.463 13.463 0 0 1 3.408 1.848 9.7 9.7 0 0 1 2.544 2.856c.672 1.136 1.008 2.552 1.008 4.248 0 1.952-.36 3.64-1.08 5.064-.72 1.424-1.688 2.6-2.904 3.528-1.216.928-2.608 1.616-4.176 2.064a17.56 17.56 0 0 1-4.848.672c-2.432 0-4.784-.424-7.056-1.272-2.272-.848-4.16-2.056-5.664-3.624l5.376-5.472c.832 1.024 1.928 1.88 3.288 2.568 1.36.688 2.712 1.032 4.056 1.032.608 0 1.2-.064 1.776-.192a4.43 4.43 0 0 0 1.512-.624 3.124 3.124 0 0 0 1.032-1.152c.256-.48.384-1.056.384-1.728 0-.64-.16-1.184-.48-1.632-.32-.448-.776-.856-1.368-1.224-.592-.368-1.328-.704-2.208-1.008-.88-.304-1.88-.632-3-.984a28.67 28.67 0 0 1-3.192-1.248 10.684 10.684 0 0 1-2.784-1.848 8.559 8.559 0 0 1-1.968-2.736c-.496-1.072-.744-2.376-.744-3.912 0-1.888.384-3.504 1.152-4.848a10.014 10.014 0 0 1 3.024-3.312c1.248-.864 2.656-1.496 4.224-1.896 1.568-.4 3.152-.6 4.752-.6 1.92 0 3.88.352 5.88 1.056 2 .704 3.752 1.744 5.256 3.12l-5.232 5.52zm24.436 8.976c-.448-.576-1.056-1.04-1.824-1.392a5.591 5.591 0 0 0-2.352-.528c-.832 0-1.584.168-2.256.504a5.476 5.476 0 0 0-1.728 1.344 6.326 6.326 0 0 0-1.128 1.944 6.73 6.73 0 0 0-.408 2.352c0 .832.128 1.616.384 2.352a5.745 5.745 0 0 0 1.128 1.944c.496.56 1.088 1 1.776 1.32.688.32 1.464.48 2.328.48.8 0 1.592-.152 2.376-.456.784-.304 1.416-.744 1.896-1.32l4.368 5.328c-.992.96-2.272 1.712-3.84 2.256-1.568.544-3.232.816-4.992.816-1.888 0-3.648-.288-5.28-.864-1.632-.576-3.048-1.416-4.248-2.52-1.2-1.104-2.144-2.44-2.832-4.008-.688-1.568-1.032-3.344-1.032-5.328 0-1.952.344-3.712 1.032-5.28.688-1.568 1.632-2.904 2.832-4.008s2.616-1.952 4.248-2.544c1.632-.592 3.376-.888 5.232-.888.864 0 1.72.08 2.568.24.848.16 1.664.376 2.448.648a11.16 11.16 0 0 1 2.16 1.008c.656.4 1.224.84 1.704 1.32l-4.56 5.28zM78.5 55V42.04c0-.672-.048-1.312-.144-1.92a4.553 4.553 0 0 0-.552-1.608 3.106 3.106 0 0 0-1.08-1.104c-.448-.272-1.024-.408-1.728-.408-1.376 0-2.432.488-3.168 1.464-.736.976-1.104 2.184-1.104 3.624V55H62.85V18.712h7.872V34.12h.096c.544-.96 1.408-1.816 2.592-2.568 1.184-.752 2.608-1.128 4.272-1.128 1.632 0 3 .288 4.104.864 1.104.576 2 1.32 2.688 2.232.688.912 1.184 1.96 1.488 3.144.304 1.184.456 2.368.456 3.552V55h-7.92zm28.324-14.688c0-1.248-.392-2.32-1.176-3.216-.784-.896-1.96-1.344-3.528-1.344-.768 0-1.472.12-2.112.36-.64.24-1.2.568-1.68.984-.48.416-.864.904-1.152 1.464a4.286 4.286 0 0 0-.48 1.752h10.128zm7.248 3.024v.96c0 .32-.016.624-.048.912H96.695c.064.672.264 1.28.6 1.824a5.186 5.186 0 0 0 1.296 1.416c.528.4 1.12.712 1.776.936a6.27 6.27 0 0 0 2.04.336c1.248 0 2.304-.232 3.168-.696a6.267 6.267 0 0 0 2.112-1.8l5.472 3.456c-1.12 1.632-2.6 2.888-4.44 3.768-1.84.88-3.976 1.32-6.408 1.32-1.792 0-3.488-.28-5.088-.84-1.6-.56-3-1.376-4.2-2.448-1.2-1.072-2.144-2.392-2.832-3.96-.688-1.568-1.032-3.36-1.032-5.376 0-1.952.336-3.72 1.008-5.304.672-1.584 1.584-2.928 2.736-4.032 1.152-1.104 2.512-1.96 4.08-2.568 1.568-.608 3.264-.912 5.088-.912 1.76 0 3.376.296 4.848.888a10.553 10.553 0 0 1 3.792 2.568c1.056 1.12 1.88 2.48 2.472 4.08.592 1.6.888 3.424.888 5.472zM135.052 55v-3.12h-.096c-.768 1.216-1.864 2.152-3.288 2.808a10.712 10.712 0 0 1-4.536.984c-1.792 0-3.392-.352-4.8-1.056a11.025 11.025 0 0 1-3.576-2.808c-.976-1.168-1.72-2.52-2.232-4.056a15.078 15.078 0 0 1-.768-4.8c0-1.664.264-3.256.792-4.776s1.28-2.856 2.256-4.008a10.685 10.685 0 0 1 3.552-2.736c1.392-.672 2.952-1.008 4.68-1.008 1.76 0 3.248.336 4.464 1.008 1.216.672 2.16 1.408 2.832 2.208h.096V18.712h7.872V55h-7.248zm-.288-12a6.46 6.46 0 0 0-.408-2.256 6.374 6.374 0 0 0-1.152-1.968 5.726 5.726 0 0 0-1.8-1.392c-.704-.352-1.504-.528-2.4-.528-.928 0-1.744.176-2.448.528a5.612 5.612 0 0 0-1.776 1.368c-.48.56-.84 1.208-1.08 1.944a7.233 7.233 0 0 0-.36 2.256c0 .768.12 1.528.36 2.28.24.752.6 1.416 1.08 1.992a5.455 5.455 0 0 0 1.776 1.392c.704.352 1.52.528 2.448.528.896 0 1.696-.176 2.4-.528a5.726 5.726 0 0 0 1.8-1.392 6.374 6.374 0 0 0 1.152-1.968 6.46 6.46 0 0 0 .408-2.256zm27.509 12v-3.312h-.096a6.766 6.766 0 0 1-1.128 1.536 7.11 7.11 0 0 1-1.632 1.248 9.99 9.99 0 0 1-2.064.864 8.28 8.28 0 0 1-2.376.336c-1.6 0-2.952-.288-4.056-.864-1.104-.576-2-1.32-2.688-2.232a8.803 8.803 0 0 1-1.488-3.12 14.14 14.14 0 0 1-.456-3.576V31.096h7.92v12.96c0 .672.048 1.312.144 1.92.096.608.28 1.152.552 1.632s.632.856 1.08 1.128c.448.272 1.04.408 1.776.408 1.376 0 2.424-.512 3.144-1.536.72-1.024 1.08-2.224 1.08-3.6V31.096h7.872V55h-7.584zm11.812 0V18.712h7.968V55h-7.968zm28.66-14.688c0-1.248-.391-2.32-1.175-3.216-.784-.896-1.96-1.344-3.528-1.344-.768 0-1.472.12-2.112.36-.64.24-1.2.568-1.68.984-.48.416-.864.904-1.152 1.464a4.286 4.286 0 0 0-.48 1.752h10.128zm7.249 3.024v.96c0 .32-.016.624-.048.912h-17.328c.064.672.264 1.28.6 1.824a5.186 5.186 0 0 0 1.296 1.416c.528.4 1.12.712 1.776.936a6.27 6.27 0 0 0 2.04.336c1.248 0 2.304-.232 3.168-.696a6.267 6.267 0 0 0 2.112-1.8l5.472 3.456c-1.12 1.632-2.6 2.888-4.44 3.768-1.84.88-3.976 1.32-6.408 1.32-1.792 0-3.488-.28-5.088-.84-1.6-.56-3-1.376-4.2-2.448-1.2-1.072-2.144-2.392-2.832-3.96-.688-1.568-1.032-3.36-1.032-5.376 0-1.952.336-3.72 1.008-5.304.672-1.584 1.584-2.928 2.736-4.032 1.152-1.104 2.512-1.96 4.08-2.568 1.568-.608 3.264-.912 5.088-.912 1.76 0 3.376.296 4.848.888a10.553 10.553 0 0 1 3.792 2.568c1.056 1.12 1.88 2.48 2.472 4.08.592 1.6.888 3.424.888 5.472z"/>
    </g>
</svg>
