<svg xmlns="http://www.w3.org/2000/svg" width="140" height="60" viewBox="0 0 140 60">
    <g fill="none" fill-rule="evenodd">
        <path d="M0 0h140v60H0z"/>
        <path fill="#034EA2" d="M125.762 26.501c0-.925.529-1.453 1.454-1.453 1.189 0 1.386 1.057 1.386 2.114h2.775c.198-2.907-1.19-4.162-4.03-4.162-3.5 0-4.49 1.718-4.49 3.831 0 4.162 5.811 4.294 5.811 6.804 0 .925-.528 1.52-1.452 1.52-1.586 0-1.652-1.058-1.652-2.379h-2.907c-.132 2.378.529 4.492 4.096 4.492 2.18 0 4.822-.462 4.822-4.03 0-4.359-5.813-4.095-5.813-6.737zm-10.04 8.389h-1.388v-9.578h1.52c1.982 0 1.982 2.246 1.982 4.822 0 3.435-.33 4.756-2.114 4.756zm.595-11.692h-4.823v13.806h4.69c4.888 0 4.624-4.822 4.624-6.937 0-4.359-.726-6.869-4.491-6.869zm-12.683 3.303c0-.925.529-1.453 1.453-1.453 1.19 0 1.387 1.057 1.387 2.114h2.774c.198-2.907-1.188-4.162-4.029-4.162-3.501 0-4.491 1.718-4.491 3.831 0 4.162 5.812 4.294 5.812 6.804 0 .925-.528 1.52-1.453 1.52-1.585 0-1.652-1.058-1.652-2.379h-2.906c-.132 2.378.528 4.492 4.096 4.492 2.18 0 4.821-.462 4.821-4.03 0-4.359-5.812-4.095-5.812-6.737zm-13.74-3.5c-4.69 0-4.887 3.5-4.887 7 0 5.22.528 7.267 5.416 7.267 1.123 0 3.104-.33 3.897-.462v-7.002H89.83v2.114h1.585v3.038c-.396.198-.925.264-1.453.264-1.586 0-2.049-.726-2.049-5.086 0-2.642 0-5.086 1.784-5.086 1.585 0 1.784 1.123 1.718 2.378h2.906c.132-2.84-1.586-4.426-4.425-4.426zm-9.776 9.775h-.066l-3.633-9.578h-3.897v13.806h2.642V26.897h.066l3.765 10.107h3.831V23.198h-2.708v9.578zm-12.814.066c0 1.52-.529 2.312-1.784 2.312-1.057 0-1.784-.66-1.784-2.312v-9.644H60.83v9.776c0 2.643 1.52 4.294 4.69 4.294 3.501 0 4.69-2.18 4.69-4.294v-9.776h-2.906v9.644zM53.1 26.501c0-.925.53-1.453 1.52-1.453 1.123 0 1.32 1.057 1.32 2.114h2.775C58.915 24.255 57.527 23 54.753 23c-3.567 0-4.557 1.718-4.557 3.831 0 4.162 5.812 4.294 5.812 6.804 0 .925-.463 1.52-1.453 1.52-1.585 0-1.651-1.058-1.651-2.379h-2.907c-.132 2.378.528 4.492 4.096 4.492 2.18 0 4.822-.462 4.822-4.03 0-4.359-5.814-4.095-5.814-6.737zm-11.823 6.077l-2.18-9.38h-4.624v13.806h2.774V26.369h.066l2.51 10.635H42.6l2.642-10.635h.066v10.635h2.775V23.198H43.59l-2.312 9.38zm-15.193-.727l1.321-6.01h.066l1.388 6.01h-2.775zm-.396-8.653l-3.832 13.806h2.84l.794-3.039h3.963l.792 3.039h3.039L29.52 23.198h-3.831zm-10.57 3.303c0-.925.595-1.453 1.52-1.453 1.19 0 1.321 1.057 1.321 2.114h2.84C21 24.255 19.613 23 16.772 23c-3.5 0-4.557 1.718-4.557 3.831 0 4.162 5.812 4.294 5.812 6.804 0 .925-.462 1.52-1.452 1.52-1.586 0-1.652-1.058-1.652-2.379h-2.907c-.131 2.378.529 4.492 4.096 4.492 2.246 0 4.822-.462 4.822-4.03 0-4.359-5.813-4.095-5.813-6.737z"/>
    </g>
</svg>
